<svg xmlns="http://www.w3.org/2000/svg" width="85.585" height="89.197" viewBox="0 0 85.585 89.197"><g transform="translate(-10.367)"><path d="M93.09,44.937,91,43.915c.015-1.473-.008-2.812,0-4.072A37.848,37.848,0,0,0,86.188,21.36a3.186,3.186,0,0,0,.026-3.6A40.032,40.032,0,0,0,67.268,2.616a1.307,1.307,0,1,0-.934,2.441A37.42,37.42,0,0,1,84.042,19.213a.59.59,0,0,1-.091.765c-.2.157-4.562,4.262-4.826,4.422a.583.583,0,0,1-.336.055.609.609,0,0,1-.44-.288A29.763,29.763,0,0,0,27.885,24a.56.56,0,0,1-.418.259.588.588,0,0,1-.49-.171L22.44,19.55a.6.6,0,0,1-.067-.758A37.242,37.242,0,0,1,60.188,3.3a1.307,1.307,0,1,0,.5-2.565A39.9,39.9,0,0,0,20.219,17.311a3.207,3.207,0,0,0,.07,3.733A38.379,38.379,0,0,0,17.1,28.032a1.307,1.307,0,1,0,2.475.84,35.7,35.7,0,0,1,2.613-5.877l2.79,2.79a32.187,32.187,0,0,0-3.384,14.352v27.2L14.379,63.8a2.515,2.515,0,0,1-1.4-2.244V49.528a2.515,2.515,0,0,1,1.4-2.244c.441-.236,1.331-.624,2.068-1.014a2.445,2.445,0,0,0,1.291-2.158v-3.96a34.388,34.388,0,0,1,.345-5.044,1.307,1.307,0,1,0-2.587-.37,36.987,36.987,0,0,0-.371,5.421v3.853c-.327.18-1.413.671-1.943.948a5.146,5.146,0,0,0-2.814,4.567V61.557a5.146,5.146,0,0,0,2.862,4.591l8.716,4.273a6.967,6.967,0,0,0,13.587-2.175v-23.5A6.963,6.963,0,0,0,24.221,39.3a29.565,29.565,0,0,1,3.133-12.424,3.246,3.246,0,0,0,.4-.019,3.165,3.165,0,0,0,2.338-1.461,27.147,27.147,0,0,1,46.035.152,3.224,3.224,0,0,0,2.74,1.526c.063,0,.126-.005.188-.009A29.578,29.578,0,0,1,82.1,39.3a6.963,6.963,0,0,0-11.31,5.444v3.919a1.307,1.307,0,1,0,2.613,0V44.743a4.355,4.355,0,1,1,8.71,0v23.5a4.355,4.355,0,0,1-8.71,0v-13a1.307,1.307,0,0,0-2.613,0v13a6.963,6.963,0,0,0,11.323,5.434v3.113A1.707,1.707,0,0,1,80.406,78.5H64.751a3.052,3.052,0,0,0-2.887-2.077h-9.88a3.052,3.052,0,0,0-3.049,3.049v6.68A3.052,3.052,0,0,0,51.984,89.2h9.88a3.052,3.052,0,0,0,2.883-2.064H73.23a1.307,1.307,0,0,0,0-2.613H64.913V81.11H80.406a4.323,4.323,0,0,0,4.318-4.318V70.249l3.41-1.672v11.6a4.345,4.345,0,0,1-4.34,4.34H79.748a1.307,1.307,0,0,0,0,2.613h4.047a6.961,6.961,0,0,0,6.953-6.953V67.3l2.343-1.148a5.146,5.146,0,0,0,2.862-4.591V49.528a5.146,5.146,0,0,0-2.862-4.591ZM28.563,40.388a4.36,4.36,0,0,1,4.355,4.355v23.5a4.355,4.355,0,0,1-8.71,0v-23.5a4.36,4.36,0,0,1,4.355-4.355Zm22.986,45.76v-6.68a.436.436,0,0,1,.436-.436h3.633v7.551H51.984A.436.436,0,0,1,51.549,86.149Zm10.751,0a.436.436,0,0,1-.436.436H58.231V79.033h3.633a.436.436,0,0,1,.436.436Zm31.04-24.591a2.515,2.515,0,0,1-1.4,2.244l-7.215,3.538v-27.2a32.2,32.2,0,0,0-3.33-14.244l2.854-2.634a35.244,35.244,0,0,1,4.142,16.56c-.009,1.085.017,2.54,0,4.294a2.271,2.271,0,0,0,1.264,2.05l2.287,1.121a2.515,2.515,0,0,1,1.4,2.244V61.557Z"/><path d="M269.064,220.071a2.573,2.573,0,0,0-1.68-2.334,2.4,2.4,0,0,0-2.638,1.007c-1,1.222-6,10.264-6.994,12.064a1.307,1.307,0,0,0,1.144,1.938h7.545c-.01,1.386-.02,2.724-.03,3.911a1.307,1.307,0,0,0,1.3,1.318h.012a1.307,1.307,0,0,0,1.306-1.3c0-.464.017-1.985.031-3.934h.968a1.307,1.307,0,0,0,0-2.613h-.95C269.1,225.747,269.117,220.71,269.064,220.071Zm-2.605,10.062h-5.343c1.962-3.523,4.417-7.852,5.36-9.31C266.5,222.256,266.482,226.136,266.458,230.132Z" transform="translate(-204.153 -179.729)"/><path d="M187.891,235.958a1.305,1.305,0,0,0-1.323-1.29c-2.38.03-4.931.047-6.677.039.981-1.29,2.585-3.43,5.042-6.941a10.849,10.849,0,0,0,2.207-5.281,5.84,5.84,0,0,0-11.57-1.13,1.307,1.307,0,0,0,2.564.5,3.227,3.227,0,0,1,6.392.551,8.7,8.7,0,0,1-1.734,3.859c-2.814,4.021-4.495,6.222-5.4,7.4-1.074,1.406-1.4,1.83-1.161,2.6a1.4,1.4,0,0,0,.91.917c.909.244,6.514.108,9.458.095a1.307,1.307,0,0,0,1.29-1.323Z" transform="translate(-136.402 -178.903)"/></g></svg>