<svg xmlns="http://www.w3.org/2000/svg" width="49.164" height="50.665" viewBox="0 0 49.164 50.665"><defs><style>.a{fill:#f90;}.b{fill-rule:evenodd;}</style></defs><g transform="translate(-4.489 -0.438)"><path class="a" d="M47.612,194.249c-20.911,9.952-33.889,1.626-42.2-3.432-.514-.319-1.388.074-.63.945,2.768,3.356,11.838,11.444,23.677,11.444s18.9-6.465,19.777-7.592.257-1.735-.628-1.366Zm5.873-3.243c-.562-.731-3.415-.868-5.21-.647s-4.5,1.313-4.263,1.973c.12.247.366.136,1.6.025s4.709-.562,5.432.384-1.107,5.486-1.442,6.217.124.92.731.433a9.485,9.485,0,0,0,2.412-3.532c.723-1.794,1.164-4.3.737-4.853Z" transform="translate(0 -152.104)"/><path class="b" d="M71.1,21.838c0,2.611.066,4.789-1.254,7.108a5.434,5.434,0,0,1-4.638,3.045c-2.574,0-4.073-1.961-4.073-4.855,0-5.713,5.119-6.75,9.965-6.75Zm6.759,16.337a1.4,1.4,0,0,1-1.584.16,16.5,16.5,0,0,1-3.846-4.468c-3.677,3.752-6.279,4.874-11.049,4.874-5.637,0-10.031-3.479-10.031-10.445A11.389,11.389,0,0,1,58.5,17.341c3.639-1.6,8.72-1.886,12.6-2.329v-.867c0-1.593.122-3.479-.811-4.855a4.485,4.485,0,0,0-3.762-1.744c-2.555,0-4.836,1.31-5.392,4.025A1.4,1.4,0,0,1,59.98,12.8l-6.5-.7a1.187,1.187,0,0,1-1-1.4C53.975,2.814,61.092.438,67.465.438c3.262,0,7.523.867,10.1,3.337,3.262,3.045,2.951,7.108,2.951,11.529V25.75c0,3.139,1.3,4.516,2.526,6.213a1.259,1.259,0,0,1-.019,1.782c-1.367,1.141-3.8,3.262-5.138,4.45l-.019-.019" transform="translate(-37.552 0)"/><path class="a" d="M47.612,194.249c-20.911,9.952-33.889,1.626-42.2-3.432-.514-.319-1.388.074-.63.945,2.768,3.356,11.838,11.444,23.677,11.444s18.9-6.465,19.777-7.592.257-1.735-.628-1.366Zm5.873-3.243c-.562-.731-3.415-.868-5.21-.647s-4.5,1.313-4.263,1.973c.12.247.366.136,1.6.025s4.709-.562,5.432.384-1.107,5.486-1.442,6.217.124.92.731.433a9.485,9.485,0,0,0,2.412-3.532c.723-1.794,1.164-4.3.737-4.853Z" transform="translate(0 -152.104)"/><path class="b" d="M71.1,21.838c0,2.611.066,4.789-1.254,7.108a5.434,5.434,0,0,1-4.638,3.045c-2.574,0-4.073-1.961-4.073-4.855,0-5.713,5.119-6.75,9.965-6.75Zm6.759,16.337a1.4,1.4,0,0,1-1.584.16,16.5,16.5,0,0,1-3.846-4.468c-3.677,3.752-6.279,4.874-11.049,4.874-5.637,0-10.031-3.479-10.031-10.445A11.389,11.389,0,0,1,58.5,17.341c3.639-1.6,8.72-1.886,12.6-2.329v-.867c0-1.593.122-3.479-.811-4.855a4.485,4.485,0,0,0-3.762-1.744c-2.555,0-4.836,1.31-5.392,4.025A1.4,1.4,0,0,1,59.98,12.8l-6.5-.7a1.187,1.187,0,0,1-1-1.4C53.975,2.814,61.092.438,67.465.438c3.262,0,7.523.867,10.1,3.337,3.262,3.045,2.951,7.108,2.951,11.529V25.75c0,3.139,1.3,4.516,2.526,6.213a1.259,1.259,0,0,1-.019,1.782c-1.367,1.141-3.8,3.262-5.138,4.45l-.019-.019" transform="translate(-37.552 0)"/></g></svg>