<svg xmlns="http://www.w3.org/2000/svg" width="16.086" height="14.334" viewBox="0 0 16.086 14.334"><defs><style>.a{fill:#fff;}</style></defs><g transform="translate(0 -20.9)"><g transform="translate(0 20.9)"><g transform="translate(0 0)"><path class="a" d="M14.418,22.119h-1.01v-.8a.419.419,0,1,0-.838,0v.8H8.464v-.8a.419.419,0,1,0-.838,0v.8H3.478v-.8a.419.419,0,1,0-.838,0v.8H1.672A1.7,1.7,0,0,0,0,23.816v9.742a1.672,1.672,0,0,0,1.672,1.676H14.414a1.671,1.671,0,0,0,1.672-1.672V23.816A1.689,1.689,0,0,0,14.418,22.119Zm.834,11.439a.836.836,0,0,1-.83.838H1.672a.833.833,0,0,1-.834-.834V23.816a.852.852,0,0,1,.834-.859H2.64v.608a.419.419,0,1,0,.838,0v-.608H7.626v.608a.419.419,0,1,0,.838,0v-.608H12.57v.608a.419.419,0,1,0,.838,0v-.608h1.01a.852.852,0,0,1,.834.859Z" transform="translate(0 -20.9)"/></g></g><g transform="translate(5.791 25.681)"><path class="a" d="M139.352,135h-.733a.419.419,0,1,0,0,.838h.733a.419.419,0,0,0,0-.838Z" transform="translate(-138.2 -135)"/></g><g transform="translate(8.707 25.681)"><path class="a" d="M208.952,135h-.733a.419.419,0,0,0,0,.838h.733a.419.419,0,0,0,0-.838Z" transform="translate(-207.8 -135)"/></g><g transform="translate(11.648 25.681)"><path class="a" d="M279.152,135h-.733a.419.419,0,1,0,0,.838h.733a.419.419,0,1,0,0-.838Z" transform="translate(-278 -135)"/></g><g transform="translate(5.791 28.572)"><g transform="translate(0 0)"><path class="a" d="M139.352,204h-.733a.419.419,0,1,0,0,.838h.733a.419.419,0,0,0,0-.838Z" transform="translate(-138.2 -204)"/></g></g><g transform="translate(2.849 28.572)"><g transform="translate(0 0)"><path class="a" d="M69.156,204h-.737a.419.419,0,0,0,0,.838h.733a.419.419,0,0,0,0-.838Z" transform="translate(-68 -204)"/></g></g><g transform="translate(8.707 28.572)"><g transform="translate(0 0)"><path class="a" d="M208.952,204h-.733a.419.419,0,0,0,0,.838h.733a.419.419,0,0,0,0-.838Z" transform="translate(-207.8 -204)"/></g></g><g transform="translate(11.648 28.572)"><g transform="translate(0 0)"><path class="a" d="M279.152,204h-.733a.419.419,0,1,0,0,.838h.733a.419.419,0,1,0,0-.838Z" transform="translate(-278 -204)"/></g></g><g transform="translate(5.791 31.421)"><path class="a" d="M139.352,272h-.733a.419.419,0,1,0,0,.838h.733a.419.419,0,1,0,0-.838Z" transform="translate(-138.2 -272)"/></g><g transform="translate(2.849 31.421)"><path class="a" d="M69.156,272h-.737a.419.419,0,1,0,0,.838h.733a.419.419,0,0,0,0-.838Z" transform="translate(-68 -272)"/></g><g transform="translate(8.707 31.421)"><path class="a" d="M208.952,272h-.733a.419.419,0,1,0,0,.838h.733a.419.419,0,1,0,0-.838Z" transform="translate(-207.8 -272)"/></g></g></svg>