<svg xmlns="http://www.w3.org/2000/svg" width="18.637" height="17.106" viewBox="0 0 18.637 17.106"><defs><style>.a{fill:#fff;}</style></defs><g transform="translate(0 -2.465)"><path class="a" d="M9.311,24.086h4.038a.311.311,0,1,0,0-.621H9.311a.311.311,0,0,0,0,.621Z" transform="translate(-6.204 -14.477)"/><path class="a" d="M17.387,29.465H9.311a.311.311,0,1,0,0,.621h8.076a.311.311,0,1,0,0-.621Z" transform="translate(-6.204 -18.613)"/><path class="a" d="M17.387,35.465H9.311a.311.311,0,1,0,0,.621h8.076a.311.311,0,1,0,0-.621Z" transform="translate(-6.204 -22.749)"/><path class="a" d="M16.8,2.487,6.191,2.465A1.844,1.844,0,0,0,4.349,4.307V5.9L1.842,5.9A1.844,1.844,0,0,0,0,7.746v6.567a1.844,1.844,0,0,0,1.842,1.842H3.727v3.106a.311.311,0,0,0,.54.209l3.014-3.316,5.164-.021a1.844,1.844,0,0,0,1.842-1.842v-.035l1.634,1.8a.311.311,0,0,0,.54-.209V12.738H16.8A1.844,1.844,0,0,0,18.637,10.9V4.329A1.844,1.844,0,0,0,16.8,2.487Zm-3.129,11.8a1.222,1.222,0,0,1-1.222,1.22l-5.3.022a.311.311,0,0,0-.229.1L4.349,18.457V15.843a.311.311,0,0,0-.311-.311h-2.2a1.222,1.222,0,0,1-1.221-1.22V7.746A1.222,1.222,0,0,1,1.843,6.525l2.817-.006h0L12.447,6.5a1.222,1.222,0,0,1,1.221,1.221v6.567Zm4.349-3.4a1.222,1.222,0,0,1-1.221,1.22h-.643a.311.311,0,0,0-.311.311V15.04l-1.553-1.708V7.724a1.844,1.844,0,0,0-1.843-1.842L4.97,5.9V4.307A1.222,1.222,0,0,1,6.19,3.086l10.6.022h0a1.222,1.222,0,0,1,1.221,1.221V10.9Z"/></g></svg>