<svg xmlns="http://www.w3.org/2000/svg" width="116.221" height="84.956" viewBox="0 0 116.221 84.956"><g transform="translate(0 -68.867)"><g transform="translate(0 68.867)"><g transform="translate(0 0)"><path d="M94.089,96.029H86.772l2.2-25.312c0-.046,0-.091,0-.136,0,0,0-.007,0-.011v0a1.7,1.7,0,0,0-1.026-1.56L87.94,69c-.038-.016-.077-.03-.117-.043l-.044-.015c-.032-.01-.065-.017-.1-.025s-.045-.012-.069-.017-.059-.009-.088-.014-.055-.009-.083-.011l-.014,0c-.03,0-.059,0-.089,0l-.059,0H52.438a1.7,1.7,0,1,0,0,3.4H85.424l-3.388,38.9s0,.006,0,.009L81.18,121H22.023l.989-10.214H34.276a1.7,1.7,0,1,0,0-3.4H23.342l2.089-21.563H43.358a1.7,1.7,0,1,0,0-3.4h-17.6l.982-10.138H45.628a1.7,1.7,0,1,0,0-3.4H25.2a1.7,1.7,0,0,0-1.661,1.343c0,.006,0,.011,0,.017-.009.042-.014.086-.02.129,0,.014,0,.027-.006.041s0,.005,0,.008l-1.163,12H1.7a1.7,1.7,0,1,0,0,3.4H22.011l-2.089,21.563H13.847a1.7,1.7,0,1,0,0,3.4h5.744l-1.138,11.74s0,0,0,.005l-1.759,18.155v.013c0,.024,0,.047,0,.07s0,.062,0,.094c0,0,0,0,0,0,0,.044,0,.087.006.13,0,.014,0,.028,0,.042,0,.044.012.087.02.131,0,.013,0,.026.006.038.007.033.016.064.025.1s.011.045.017.067c0,.006,0,.012.007.018a1.7,1.7,0,0,0,.4.666l.01.01c.018.018.038.035.057.052a1.69,1.69,0,0,0,.395.27c.03.015.06.031.091.044l.029.01c.043.017.086.033.13.047l.012,0c.05.015.1.028.153.039l.02,0c.049.009.1.017.15.022h0q.084.008.166.008H25.97a12.959,12.959,0,0,0,25.694,0H78.972a12.959,12.959,0,0,0,25.695,0h7.584c.057,0,.113,0,.168-.009l.03,0c.044-.005.088-.011.131-.02l.055-.013c.033-.008.067-.016.1-.026l.066-.022c.028-.01.056-.02.083-.031l.069-.03.074-.036.068-.037.069-.042.063-.042c.023-.016.045-.033.068-.05l.056-.045c.023-.02.045-.04.068-.062s.032-.029.047-.045.046-.049.069-.075l.036-.041c.025-.031.048-.063.07-.095l.024-.033c.028-.042.054-.084.078-.128l0-.008c.026-.047.049-.1.07-.145.006-.014.01-.029.016-.043.014-.035.027-.07.039-.107s.013-.048.02-.072.015-.057.022-.085.009-.052.014-.078.009-.045.012-.069c.072-.578,1.405-11.274,2-18.19,0-.007,0-.013,0-.02.171-1.994.281-3.673.281-4.7A22.157,22.157,0,0,0,94.089,96.029Zm-7.614,3.405H93.44l-.89,10.214H85.586ZM38.818,150.418a9.557,9.557,0,1,1,9.557-9.557A9.568,9.568,0,0,1,38.818,150.418Zm53,0a9.557,9.557,0,1,1,9.558-9.557A9.568,9.568,0,0,1,91.819,150.418Zm18.924-11.261h-6.076a12.959,12.959,0,0,0-25.695,0H51.665a12.959,12.959,0,0,0-25.695,0H20.263l1.43-14.756h61.05a1.675,1.675,0,0,0,.169-.009l.031,0c.044-.005.089-.012.132-.02l.056-.014c.034-.008.068-.016.1-.026l.066-.023c.029-.01.057-.02.085-.031l.07-.032c.025-.012.05-.023.075-.036l.069-.039.069-.042.064-.044.066-.049.058-.048c.022-.019.043-.038.063-.057l.051-.051c.02-.021.04-.043.06-.066l.045-.054c.019-.024.037-.048.054-.073l.039-.056c.017-.026.032-.052.048-.079s.023-.04.034-.06.027-.054.039-.081.02-.044.029-.066.02-.054.03-.082.017-.049.025-.074.014-.053.02-.08.014-.054.019-.081.008-.054.012-.081.009-.056.012-.084c0,0,0-.008,0-.012l.853-9.795h8.8c5.216,0,7.569,2.7,10.059,5.564,2.055,2.361,4.349,5,8.249,5.638C111.9,129.491,111.1,136.214,110.743,139.157Zm1.945-18.315c-2.53-.516-4.086-2.294-5.972-4.461-2.358-2.709-5.237-6.015-10.756-6.631l.881-10.112a18.755,18.755,0,0,1,15.976,18.523C112.816,118.8,112.769,119.726,112.688,120.842Z" transform="translate(0 -68.867)"/></g></g><g transform="translate(32.576 134.618)"><g transform="translate(0 0)"><path d="M149.75,358.524a6.242,6.242,0,1,0,6.242,6.242A6.249,6.249,0,0,0,149.75,358.524Zm0,9.08a2.837,2.837,0,1,1,2.837-2.838A2.841,2.841,0,0,1,149.75,367.6Z" transform="translate(-143.508 -358.524)"/></g></g><g transform="translate(85.576 134.618)"><g transform="translate(0 0)"><path d="M383.238,358.524a6.242,6.242,0,1,0,6.242,6.242A6.249,6.249,0,0,0,383.238,358.524Zm0,9.08a2.837,2.837,0,1,1,2.837-2.838A2.841,2.841,0,0,1,383.238,367.6Z" transform="translate(-376.996 -358.524)"/></g></g><g transform="translate(6.091 96.029)"><path d="M36.859,188.527H28.536a1.7,1.7,0,0,0,0,3.4h8.323a1.7,1.7,0,0,0,0-3.4Z" transform="translate(-26.834 -188.527)"/></g></g></svg>