<svg xmlns="http://www.w3.org/2000/svg" width="24.62" height="28.163" viewBox="0 0 24.62 28.163"><g transform="translate(-26.48)"><g transform="translate(26.48)"><path d="M48.424,9.634a9.634,9.634,0,0,0-19.268,0,2.906,2.906,0,0,0-2.676,3.158v5.031a2.987,2.987,0,0,0,3.211,3.211h1.552a.535.535,0,0,0,.535-.535V10.137a.535.535,0,0,0-.535-.535H30.227a8.563,8.563,0,1,1,17.127,0H46.337a.535.535,0,0,0-.535.535V20.483a.535.535,0,0,0,.535.535h1.017c-.15,3.677-1.916,4.539-5.443,4.694v-.359a1.07,1.07,0,0,0-1.07-1.07H37.473a1.07,1.07,0,0,0-1.07,1.07v1.739a1.07,1.07,0,0,0,1.07,1.07h3.377a1.07,1.07,0,0,0,1.07-1.07v-.31c3.393-.155,6.326-.856,6.5-5.8A2.906,2.906,0,0,0,51.1,17.828V12.8A2.9,2.9,0,0,0,48.424,9.634Zm-17.716,1v9.313H29.665a1.943,1.943,0,0,1-2.141-2.141V12.776a1.945,1.945,0,0,1,2.141-2.141Zm10.142,15.65V27.1H37.473V25.359h3.377Zm9.179-8.462a1.945,1.945,0,0,1-2.141,2.141H46.872V10.672h1.044a1.943,1.943,0,0,1,2.141,2.141Z" transform="translate(-26.48)"/></g></g></svg>