<svg xmlns="http://www.w3.org/2000/svg" width="210.368" height="61.686" viewBox="0 0 210.368 61.686"><defs><style>.a{font-size:19.606px;font-family:Montserrat-Medium, Montserrat;font-weight:500;letter-spacing:0.13em;}.b{font-family:Montserrat-Regular, Montserrat;font-weight:400;}.c{font-family:Montserrat-Bold, Montserrat;font-weight:700;}</style></defs><g transform="translate(-210.975 -417.06)"><path d="M232.547,431.254c-3.91,14.321-10.486,25.987-21.572,34.9,12.161-14.062,19.024-30.2,19.343-49.1,2.418.277,2.554,2.194,3.221,3.583,2.617,5.443,4.793,11.132,8.355,16.057,1.416,1.957,2.165,6.456,6.236,2.379.862-.863,2,.376,2.549,1.5,4.9,10.044,11.91,18.124,21.873,23.467.827.444,1.914,1.051,1.78,2.174-.148,1.242-1.569,1.016-2.394,1.393a6.261,6.261,0,0,1-2.914.319c-6.918-.467-13.826-1.085-20.747-1.472a53.463,53.463,0,0,0-16.819,1.57c-3.653.976-3.893,3.162-1.213,5.828,3.623,3.6,8.006,3.192,12.3,2.149a105.14,105.14,0,0,0,10.287-3.6c-5.646,5.542-17.311,8-23.122,5.133-2.971-1.467-4.808-3.675-4.617-6.908s2.255-5.435,5.3-6.516c7.955-2.823,16.165-2.382,24.377-1.757.558.042,1.1.406,1.651.391,1.767-.048,4.136.9,4.992-1.168.655-1.584-1.5-2.53-2.527-3.564-2.8-2.811-5.8-5.42-8.71-8.125-.9-.841-1.487-1.878-3-.464-2.249,2.1-3.878,1.038-5.221-1.462C239.051,442.557,235.943,437.256,232.547,431.254Z"/><text class="a" transform="translate(274.343 453.628)"><tspan x="0" y="0">EVEREST</tspan><tspan class="b" y="0"> </tspan><tspan class="c" y="0">3D</tspan></text></g></svg>