<svg xmlns="http://www.w3.org/2000/svg" width="87.612" height="99.444" viewBox="0 0 87.612 99.444"><path d="M193.14,171.3a1.553,1.553,0,0,0-.559-.019,3.708,3.708,0,0,1-3.28-3.677,1.631,1.631,0,0,0-3.262,0,6.978,6.978,0,0,0,5.131,6.719v1.631a1.631,1.631,0,0,0,3.262,0v-1.532A6.965,6.965,0,0,0,193,160.638a3.7,3.7,0,1,1,3.7-3.7,1.631,1.631,0,0,0,3.262,0,6.978,6.978,0,0,0-5.539-6.819v-1.485a1.631,1.631,0,0,0-3.262,0v1.584A6.965,6.965,0,0,0,193,163.9a3.7,3.7,0,0,1,.135,7.4Zm0,0" transform="translate(-148.179 -117.027)"/><path d="M104.195,130.146a23.654,23.654,0,1,0,23.654-23.654A23.653,23.653,0,0,0,104.195,130.146Zm23.654-20.391a20.391,20.391,0,1,1-20.391,20.391A20.391,20.391,0,0,1,127.849,109.754Zm0,0" transform="translate(-83.023 -84.779)"/><path d="M76.879,332.855,64.1,338.892a10.408,10.408,0,0,0-8.873-5.475l-11.8-.324a12.458,12.458,0,0,1-5.361-1.384l-1.2-.622a21.171,21.171,0,0,0-19.61.021l.075-2.719a1.631,1.631,0,0,0-1.586-1.676l-12.935-.356a1.63,1.63,0,0,0-1.675,1.586L.36,356.327A1.631,1.631,0,0,0,1.946,358l12.935.356h.045a1.631,1.631,0,0,0,1.631-1.587l.037-1.358,3.36-1.8a5.764,5.764,0,0,1,4.3-.471l20.066,5.632c.035.01.07.018.106.026a21.484,21.484,0,0,0,4.41.455,21.764,21.764,0,0,0,9.092-1.984,1.512,1.512,0,0,0,.2-.112l29.094-18.819a1.632,1.632,0,0,0,.534-2.173,8.24,8.24,0,0,0-10.881-3.315ZM3.667,354.787l.691-25.124,9.673.266-.691,25.125Zm52.794-.427a18.494,18.494,0,0,1-11.31,1.262L25.139,350a9.019,9.019,0,0,0-6.724.735l-1.717.92.46-16.7a17.93,17.93,0,0,1,18.215-.972l1.2.622a15.754,15.754,0,0,0,6.772,1.749l11.8.324a7.154,7.154,0,0,1,6.8,5.7l-17.571-.485a1.631,1.631,0,0,0-.09,3.262l19.391.534h.045a1.631,1.631,0,0,0,1.63-1.587,10.353,10.353,0,0,0-.158-2.116l13.106-6.193.038-.018a4.984,4.984,0,0,1,5.636.789Zm0,0" transform="translate(-0.36 -259.813)"/><path d="M215.465,17.127V1.631a1.631,1.631,0,1,0-3.262,0v15.5a1.631,1.631,0,1,0,3.262,0Zm0,0" transform="translate(-169.009 0)"/><path d="M275.465,48.971v-7.34a1.631,1.631,0,1,0-3.262,0v7.34a1.631,1.631,0,1,0,3.262,0Zm0,0" transform="translate(-216.775 -31.844)"/><path d="M155.465,48.971v-7.34a1.631,1.631,0,0,0-3.262,0v7.34a1.631,1.631,0,1,0,3.262,0Zm0,0" transform="translate(-121.243 -31.844)"/></svg>