<svg xmlns="http://www.w3.org/2000/svg" width="23.609" height="23.609" viewBox="0 0 23.609 23.609"><g transform="translate(-0.006)"><g transform="translate(0.006)"><g transform="translate(0)"><path d="M23.391,22.325l-6.1-6a9.641,9.641,0,0,0,2.577-6.552A9.856,9.856,0,0,0,9.939,0,9.855,9.855,0,0,0,.006,9.775,9.855,9.855,0,0,0,9.939,19.55a9.989,9.989,0,0,0,6.252-2.183l6.119,6.022a.772.772,0,0,0,1.08,0A.744.744,0,0,0,23.391,22.325ZM9.939,18.046a8.339,8.339,0,0,1-8.4-8.271A8.339,8.339,0,0,1,9.939,1.5a8.339,8.339,0,0,1,8.4,8.271A8.339,8.339,0,0,1,9.939,18.046Z" transform="translate(-0.006)"/></g></g></g></svg>